<svg xmlns="http://www.w3.org/2000/svg" width="356.4" height="290.2" viewBox="0 0 356.4 290.2"><defs><style>.a{fill:#11132a;}</style></defs><path class="a" d="M298.3,298.2H218.5V131.1a45,45,0,0,0,25.8-32.5h63.4c9.8,0,17.3-8.1,17.3-18.1s-8-18.1-17.3-18.1H236.1a44.1,44.1,0,0,0-35.5-18.2,43.4,43.4,0,0,0-35.5,18.2H93.5A18,18,0,0,0,75.7,80.5c0,10,8,18.1,17.3,18.1h63.4a45.2,45.2,0,0,0,25.8,32.5V298.2H102.5a27,27,0,0,0-26.8,27.2,9,9,0,0,0,8.9,9.1h232a9,9,0,0,0,8.9-9.1A27.1,27.1,0,0,0,298.3,298.2ZM93.5,144l40.2,81.6H53.4Zm71.4,90.7c0-9.1.8-5-47.5-102.9a26.5,26.5,0,0,0-47.8,0c-48.6,98.8-46.9,94-46.9,102.9,0,25,31.9,45.3,70.8,45.3S164.9,259.7,164.9,234.7ZM267,225.6,307.2,144l40.2,81.6Zm64.6-93.8c-9.8-20-38-20-47.9,0-48.5,98.8-46.9,94-46.9,102.9,0,25,31.9,45.3,71.4,45.3s70.9-20.3,70.9-45.3C378.6,225.6,379.8,229.8,331.6,131.8Z" transform="translate(-22.7 -44.2)"/></svg>