<svg xmlns="http://www.w3.org/2000/svg" width="321.2" height="321.2" viewBox="0 0 321.2 321.2"><defs><style>.a{fill:#11132a;}.b{fill:none;}</style></defs><path class="a" d="M355.6,318.3l-75.1-75.1a130.3,130.3,0,0,0,21-90.8C293.8,95,246.8,48.3,189.3,41.1A130.5,130.5,0,0,0,42.9,187.5c7.2,57.4,54,104.5,111.4,112.2a130,130,0,0,0,90.7-21l75.1,75.1a25.1,25.1,0,0,0,35.5-35.5ZM171.7,272.6A102.2,102.2,0,1,1,273.9,170.4,102.3,102.3,0,0,1,171.7,272.6Z" transform="translate(-41.8 -40)"/><line class="b" x1="143.9" y1="74.9" x2="143.1" y2="73.9"/><path class="a" d="M188.5,111.2a10.1,10.1,0,0,1-2.8,3.7,10.4,10.4,0,0,1-2.5,1.5l-.7-.4,2.4-2.1,3.4-3Z" transform="translate(-41.8 -40)"/><path class="a" d="M129.6,195.6l-1,.6.6-.9Z" transform="translate(-41.8 -40)"/><path class="a" d="M137.8,190l-.3.5v-.2Z" transform="translate(-41.8 -40)"/><polygon class="a" points="83.9 93.1 85 94.4 83.6 93.8 83.9 93.1"/><path class="a" d="M132.2,141.3l.5.6-.8-.3Z" transform="translate(-41.8 -40)"/><path class="a" d="M141.4,145.8l-1.1-.5.4-.4Z" transform="translate(-41.8 -40)"/><polygon class="a" points="81.9 97.7 82.1 98 81.8 97.9 81.9 97.7"/><polygon class="a" points="83.9 93.1 85 94.4 83.6 93.8 83.9 93.1"/><path class="a" d="M132.2,141.3l.5.6-.8-.3Z" transform="translate(-41.8 -40)"/><path class="a" d="M141.4,145.8l-1.1-.5.4-.4Z" transform="translate(-41.8 -40)"/><path class="a" d="M132.8,198.8l-.9.6.7-1C132.7,198.6,132.8,198.7,132.8,198.8Z" transform="translate(-41.8 -40)"/><path class="a" d="M137.8,190l-.3.5v-.2Z" transform="translate(-41.8 -40)"/><polygon class="a" points="81.9 97.7 82.1 98 81.8 97.9 81.9 97.7"/><polygon class="a" points="83.9 93.1 85 94.4 83.6 93.8 83.9 93.1"/><path class="a" d="M132.7,141.9l-.8-.3.3-.3Z" transform="translate(-41.8 -40)"/><path class="a" d="M132.2,141.3l-.3.3.8.3Z" transform="translate(-41.8 -40)"/><path class="a" d="M236.8,154.8a20.9,20.9,0,0,0-8.7,1.9l-33.4-38.3a18.4,18.4,0,1,0-25.4,4.3l-12.6,20.1-13-5.8a20,20,0,0,0,.2-3.5,21.2,21.2,0,1,0-21.1,21.2,20.7,20.7,0,0,0,11.5-3.4l9.5,12.2-13.9,22.2a20.8,20.8,0,0,0-7.1-1.2,21.2,21.2,0,1,0,21.1,21.2,20.6,20.6,0,0,0-1.5-7.9l18.4-12.5L183.2,214a18,18,0,0,0-3.9,11.3,18.4,18.4,0,1,0,33.4-10.6l16.3-19a20.1,20.1,0,0,0,7.8,1.5,21.2,21.2,0,0,0,0-42.4Zm-95.4-9-1.1-.5.4-.4.7.9,10.5,4.7-3.1,4.9Zm-3.9,44.7v-.2l.4-.3Zm.3-.5,11.9-19,5.6,7.2Zm16.9-27.1,5.5-8.7,12,5.3a18.8,18.8,0,0,0-1.1,6.2,10.9,10.9,0,0,0,.1,1.8l-8.5,5.7Zm51.2,45.9a19,19,0,0,0-8.2-1.9,17.8,17.8,0,0,0-7.4,1.6l-22-28.2,6.1-4.1a18.2,18.2,0,0,0,15.1,7.9,18.4,18.4,0,1,0,0-36.8,18.2,18.2,0,0,0-12.2,4.7L165,146.5l12.9-20.6h1.9a19.2,19.2,0,0,0,8-1.8l33.1,37.9a20.9,20.9,0,0,0,.6,28.5Z" transform="translate(-41.8 -40)"/></svg>