<svg xmlns="http://www.w3.org/2000/svg" width="335.7" height="335.7" viewBox="0 0 335.7 335.7"><defs><style>.a{fill:#11132a;}</style></defs><path class="a" d="M209.3,116.6c-75.6,0-135.9,60.2-135.9,135.9A136,136,0,1,0,209.3,116.6ZM377.2,252.9A167.9,167.9,0,1,1,209.3,85,167.8,167.8,0,0,1,377.2,252.9ZM209.3,335.2a81.7,81.7,0,1,0-81.6-81.7A81.7,81.7,0,0,0,209.3,335.2ZM100.1,253.5A109.3,109.3,0,1,1,209.3,362.8,109.2,109.2,0,0,1,100.1,253.5Z" transform="translate(-41.5 -85)"/><path class="a" d="M209.3,195a57.5,57.5,0,1,0,57.5,57.5A57.5,57.5,0,0,0,209.3,195Zm4.4,76.4-12.2,12.2-29.3-29.3,12.2-12.2,14.1,14.1,32.8-32.7,15.2,15.2Z" transform="translate(-41.5 -85)"/></svg>